<svg
  xmlns="http://www.w3.org/2000/svg"
  viewBox="0 0 369.5 142.42"
  data-name="IdeaUp Text Logo"
>
  <title>Idea Up Text Logo</title>
  <g class="idea-up-text-logo-lettering" data-name="IdeaUp Text Logo Lettering">
    <path
      class="idea-up-text-logo-i logo-lettering"
      d="M321.3,538.23a8.36,8.36,0,0,1-4.11-1.08,3.5,3.5,0,0,1-1.94-3.24V437.14a3.33,3.33,0,0,1,1.94-3.16,8.86,8.86,0,0,1,4.11-1,8.69,8.69,0,0,1,4.17,1,3.35,3.35,0,0,1,1.88,3.16v96.77a3.51,3.51,0,0,1-1.88,3.24A8.2,8.2,0,0,1,321.3,538.23Z"
      transform="translate(-315.25 -428.79)"
    />
    <path
      class="idea-up-text-logo-d logo-lettering"
      d="M368.53,539.38a21.91,21.91,0,0,1-12.6-4,29.48,29.48,0,0,1-9.36-10.36A27.82,27.82,0,0,1,343,511.45V496.76a27.41,27.41,0,0,1,3.53-13.82,28.73,28.73,0,0,1,9.36-10,23.08,23.08,0,0,1,12.89-3.82,19.88,19.88,0,0,1,11.73,3.39,22.83,22.83,0,0,1,7.13,7.56V433a3.48,3.48,0,0,1,1.8-3,8,8,0,0,1,4.39-1.15,7,7,0,0,1,4.18,1.15,3.59,3.59,0,0,1,1.58,3V533.91a3.91,3.91,0,0,1-1.58,3,6.14,6.14,0,0,1-4.18,1.37,6,6,0,0,1-4-1.37,3.85,3.85,0,0,1-1.65-3v-5.76a19.41,19.41,0,0,1-7.64,7.85A22.59,22.59,0,0,1,368.53,539.38Zm2.88-10.8a14.3,14.3,0,0,0,8.28-2.52,22,22,0,0,0,5.83-5.68c1.44-2.11,2.16-3.8,2.16-5V496.76a16.19,16.19,0,0,0-2.38-9,17.05,17.05,0,0,0-6.12-5.76,15.51,15.51,0,0,0-7.63-2.09,15,15,0,0,0-8.35,2.45,18.34,18.34,0,0,0-6,6.34,16.05,16.05,0,0,0-2.23,8.06v14.69a16.88,16.88,0,0,0,2.23,8.21,18.17,18.17,0,0,0,6,6.48A14.71,14.71,0,0,0,371.41,528.58Z"
      transform="translate(-315.25 -428.79)"
    />
    <path
      class="idea-up-text-logo-e logo-lettering"
      d="M446.29,539.38a37.2,37.2,0,0,1-16.56-3.52,28.37,28.37,0,0,1-11.38-9.8,25.73,25.73,0,0,1-4.18-14.61V496.33a24.64,24.64,0,0,1,4-13.54,30,30,0,0,1,10.44-9.93,29,29,0,0,1,28-.29,27.65,27.65,0,0,1,10.08,9.36,24.59,24.59,0,0,1,3.82,13.68c0,3.84-.63,6.6-1.87,8.28a7.65,7.65,0,0,1-4.76,3.09,30.27,30.27,0,0,1-6,.58H426.13v4.32q0,8.07,5.76,12.74t14.83,4.68a20.8,20.8,0,0,0,8.49-1.44,34.87,34.87,0,0,0,5.19-2.8,6.57,6.57,0,0,1,3.6-1.37,3.94,3.94,0,0,1,2.66.93,6.43,6.43,0,0,1,1.66,2.24,5.81,5.81,0,0,1,.57,2.3c0,1.25-.91,2.66-2.73,4.25a24.41,24.41,0,0,1-7.85,4.17A36.25,36.25,0,0,1,446.29,539.38ZM426.13,499.5h26.64q3.89,0,5.11-.94c.81-.62,1.22-1.85,1.22-3.67a15.79,15.79,0,0,0-2.09-8,16.52,16.52,0,0,0-5.83-6,15.91,15.91,0,0,0-8.49-2.3,16.56,16.56,0,0,0-8.21,2.08,16.85,16.85,0,0,0-6.05,5.69,14.36,14.36,0,0,0-2.3,7.92Z"
      transform="translate(-315.25 -428.79)"
    />
    <path
      class="idea-up-text-logo-a logo-lettering"
      d="M498.7,539.38A20.93,20.93,0,0,1,485,534.7q-5.68-4.68-5.69-14.47,0-7.92,4.32-12.31t11.88-6.05a82.67,82.67,0,0,1,17.5-1.65h6.91v-3a23.29,23.29,0,0,0-1.58-8.42,15.68,15.68,0,0,0-5-6.77c-2.26-1.78-5.35-2.66-9.29-2.66a25.55,25.55,0,0,0-8,1,23.41,23.41,0,0,0-4.68,2.09,5.93,5.93,0,0,1-3,1.08,3.6,3.6,0,0,1-3.31-2.09,8.19,8.19,0,0,1-1.15-4q0-2.29,3.17-4.17a29,29,0,0,1,7.92-3,40.07,40.07,0,0,1,9.36-1.15q10.08,0,16.13,4a23.09,23.09,0,0,1,8.71,10.37,34.71,34.71,0,0,1,2.66,13.54v36.86a3.8,3.8,0,0,1-1.65,3,6.72,6.72,0,0,1-4.25,1.29,6,6,0,0,1-3.89-1.29,3.83,3.83,0,0,1-1.58-3v-5.76a42.64,42.64,0,0,1-9.08,7.78A22.78,22.78,0,0,1,498.7,539.38Zm3.75-9.64a15.94,15.94,0,0,0,8.13-2.31,22.52,22.52,0,0,0,6.63-5.76,11,11,0,0,0,2.66-6.62v-7.49h-5a86.74,86.74,0,0,0-11.45.72,19,19,0,0,0-8.71,3.1q-3.32,2.37-3.31,7.56c0,3.74,1.05,6.48,3.17,8.2A12.08,12.08,0,0,0,502.45,529.74Z"
      transform="translate(-315.25 -428.79)"
    />
    <path
      class="idea-up-text-logo-u logo-lettering"
      d="M579.34,539.1A39,39,0,0,1,563.5,536a24.43,24.43,0,0,1-11.23-9.94q-4.17-6.84-4.18-18.36V437.14A3.35,3.35,0,0,1,550,434a9.13,9.13,0,0,1,8.35,0,3.34,3.34,0,0,1,1.87,3.16V507.7q0,10.52,5.11,15.48t14.19,5q9.07,0,14.18-5t5.11-15.48V437.14a3.35,3.35,0,0,1,1.87-3.16,9.15,9.15,0,0,1,8.36,0,3.35,3.35,0,0,1,1.87,3.16V507.7q0,11.52-4.18,18.36A24.35,24.35,0,0,1,595.4,536,39.83,39.83,0,0,1,579.34,539.1Z"
      transform="translate(-315.25 -428.79)"
    />
    <path
      class="idea-up-text-logo-p logo-lettering"
      d="M633.92,571.21a6.25,6.25,0,0,1-4.11-1.37,3.87,3.87,0,0,1-1.65-3V474.15a3.54,3.54,0,0,1,1.65-3,7,7,0,0,1,4.11-1.15,6.67,6.67,0,0,1,4,1.15,3.56,3.56,0,0,1,1.58,3v5.91a24.21,24.21,0,0,1,7.35-7.56,20.47,20.47,0,0,1,12-3.39,23.64,23.64,0,0,1,13.1,3.82,27.89,27.89,0,0,1,12.82,23.83v14.69a27.82,27.82,0,0,1-3.53,13.61,29.78,29.78,0,0,1-9.29,10.36,21.81,21.81,0,0,1-12.67,4,22.08,22.08,0,0,1-19.15-11.23v38.74a3.79,3.79,0,0,1-1.8,3A7.05,7.05,0,0,1,633.92,571.21Zm22.46-42.63a14.5,14.5,0,0,0,8.07-2.44,18.8,18.8,0,0,0,6-6.48,16.36,16.36,0,0,0,2.31-8.21V496.76a15.57,15.57,0,0,0-2.31-8.06,19,19,0,0,0-6-6.34,15,15,0,0,0-8.36-2.45,15.14,15.14,0,0,0-7.56,2.09,17.32,17.32,0,0,0-6,5.76,16.19,16.19,0,0,0-2.38,9v18.58c0,1.24.69,2.93,2.09,5a20.93,20.93,0,0,0,5.76,5.68A14.52,14.52,0,0,0,656.38,528.58Z"
      transform="translate(-315.25 -428.79)"
    />
  </g>
  <path
    class="idea-up-text-logo-bar logo-bar"
    d="M616.54,571.21H319.25a4,4,0,0,1-4-4V550.47a4,4,0,0,1,4-4H616.54a4,4,0,0,1,4,4v16.74A4,4,0,0,1,616.54,571.21ZM340.8,565.34a43.33,43.33,0,0,0,9-.82,15.77,15.77,0,0,0,5.94-2.33,4.33,4.33,0,0,0,2.09-3.53,4.13,4.13,0,0,0-2-3.37,15,15,0,0,0-5.67-2.19,43.28,43.28,0,0,0-8.67-.77,44.13,44.13,0,0,0-9,.82,15.77,15.77,0,0,0-5.94,2.34,4.3,4.3,0,0,0-2.09,3.51,4.12,4.12,0,0,0,2,3.37,14.86,14.86,0,0,0,5.64,2.21A43.23,43.23,0,0,0,340.8,565.34Zm.05-1.42a22.26,22.26,0,0,1-8.51-1.27c-2-.84-2.94-2.07-2.94-3.67s1.05-3,3.16-3.86a23,23,0,0,1,8.88-1.36A22.46,22.46,0,0,1,350,555c2,.85,2.95,2.06,2.95,3.66s-1.06,3-3.16,3.86A22.87,22.87,0,0,1,340.85,563.92Zm73.76-11.41h-7.23c-1.14,0-1.71.16-1.71.49v.45c0,.33.57.49,1.71.49h1.45v8.42l-18.09-9.6a3.88,3.88,0,0,0-1.45-.25h-5.08c-1.18,0-1.77.16-1.77.49v.45c0,.33.59.49,1.77.49h1.39v9.8h-1.39q-1.77,0-1.77.48v.46q0,.48,1.77.48h7.17q1.77,0,1.77-.48v-.46q0-.48-1.77-.48H390v-8.43l18.09,9.6a3.49,3.49,0,0,0,1.39.25h1.82a4.12,4.12,0,0,0,1.39-.19c.36-.12.54-.28.54-.47V553.94h1.39c1.14,0,1.71-.16,1.71-.49V553C416.32,552.67,415.75,552.51,414.61,552.51Zm50.53,9.33H463.8c-1,0-1.45.2-1.45.59v1.31H448.22v-9.8h3.86c1.17,0,1.76-.16,1.76-.49V553c0-.33-.59-.49-1.76-.49H442c-1.17,0-1.76.16-1.76.49v.45c0,.33.59.49,1.76.49h1.4v9.8H442c-1.17,0-1.76.16-1.76.48v.46c0,.32.59.48,1.76.48h22.43A5.12,5.12,0,0,0,466,565c.41-.14.61-.31.61-.5v-2c0-.19-.12-.34-.37-.44A3,3,0,0,0,465.14,561.84Zm27,3.32h7.6q1.77,0,1.77-.48v-.46q0-.48-1.77-.48h-1.39v-9.8h1.39c1.18,0,1.77-.16,1.77-.49V553c0-.33-.59-.49-1.77-.49h-7.6c-1.18,0-1.76.16-1.76.49v.45c0,.33.58.49,1.76.49h1.39v9.8h-1.39c-1.18,0-1.76.16-1.76.48v.46C490.35,565,490.93,565.16,492.11,565.16ZM558,552.51h-7.23c-1.14,0-1.71.16-1.71.49v.45c0,.33.57.49,1.71.49h1.45v8.42l-18.09-9.6a3.88,3.88,0,0,0-1.45-.25h-5.08c-1.18,0-1.77.16-1.77.49v.45c0,.33.59.49,1.77.49h1.39v9.8h-1.39q-1.77,0-1.77.48v.46q0,.48,1.77.48h7.17c1.17,0,1.76-.16,1.76-.48v-.46c0-.32-.59-.48-1.76-.48h-1.39v-8.43l18.09,9.6a3.45,3.45,0,0,0,1.39.25h1.82A4.16,4.16,0,0,0,556,565c.36-.12.54-.28.54-.47V553.94H558c1.14,0,1.71-.16,1.71-.49V553C559.66,552.67,559.09,552.51,558,552.51Zm51.91,9.31h-1.33c-1,0-1.45.2-1.45.6v1.32H591.56v-4.41h11.78a3.48,3.48,0,0,0,1.09-.16c.3-.1.46-.22.46-.37v-.38c0-.14-.16-.27-.46-.37a3.5,3.5,0,0,0-1.09-.15H591.56v-4h15.25v1c0,.39.47.59,1.4.59h1.39c.92,0,1.39-.2,1.39-.59v-1.69c0-.2-.2-.37-.59-.51a4.51,4.51,0,0,0-1.5-.21H585.35c-1.18,0-1.77.16-1.77.49v.45c0,.33.59.49,1.77.49h1.39v9.8h-1.39q-1.77,0-1.77.48v.46q0,.48,1.77.48h23.82a5,5,0,0,0,1.52-.2c.41-.14.62-.31.62-.5v-2c0-.2-.13-.34-.37-.45A3,3,0,0,0,609.86,561.82Z"
    transform="translate(-315.25 -428.79)"
  />
</svg>
